<?xml version="1.0" standalone="no"?>
<!DOCTYPE svg PUBLIC "-//W3C//DTD SVG 20010904//EN"
 "http://www.w3.org/TR/2001/REC-SVG-20010904/DTD/svg10.dtd">
<svg version="1.0" xmlns="http://www.w3.org/2000/svg"
 width="225.000000pt" height="225.000000pt" viewBox="0 0 225.000000 225.000000"
 preserveAspectRatio="xMidYMid meet">

<g transform="translate(0.000000,225.000000) scale(0.100000,-0.100000)"
fill="#000000" stroke="none">
<path d="M1215 1624 c-73 -16 -113 -31 -149 -59 -31 -23 -47 -30 -61 -24 -11
4 -47 8 -81 8 -174 2 -295 -166 -238 -331 20 -61 73 -121 131 -148 42 -19 59
-22 131 -17 71 4 85 2 107 -14 130 -103 332 -82 444 47 55 62 75 118 76 209 0
91 -26 161 -84 228 -57 64 -200 116 -276 101z m152 -101 c158 -74 190 -277 62
-405 -78 -78 -192 -97 -289 -48 -76 39 -139 129 -140 198 0 30 -2 32 -35 32
-33 0 -35 -2 -35 -35 0 -19 9 -58 20 -87 11 -29 20 -55 20 -57 0 -2 -27 -1
-59 1 -73 5 -124 41 -153 106 -53 119 36 252 168 252 85 0 161 -63 179 -147 6
-29 10 -33 41 -33 22 0 34 5 34 13 0 35 -32 113 -59 148 l-31 38 34 21 c72 44
155 45 243 3z"/>
<path d="M400 850 c0 -13 7 -20 20 -20 13 0 20 7 20 20 0 13 -7 20 -20 20 -13
0 -20 -7 -20 -20z"/>
<path d="M980 818 c0 -33 -3 -39 -12 -30 -13 13 -56 16 -83 6 -26 -10 -48 -62
-41 -99 8 -43 38 -68 78 -67 18 1 48 2 66 2 l32 0 0 115 c0 108 -1 115 -20
115 -17 0 -20 -7 -20 -42z m-16 -61 c36 -26 16 -97 -27 -97 -51 0 -76 66 -35
94 27 19 39 20 62 3z"/>
<path d="M1600 745 c0 -108 1 -115 20 -115 11 0 20 4 20 9 0 5 13 3 29 -5 54
-27 110 12 111 77 0 70 -61 110 -121 79 -17 -10 -19 -7 -19 30 0 33 -3 40 -20
40 -19 0 -20 -7 -20 -115z m124 12 c21 -16 24 -60 6 -82 -7 -8 -23 -15 -36
-15 -51 0 -73 65 -32 94 27 19 39 20 62 3z"/>
<path d="M310 825 c0 -16 -6 -25 -15 -25 -8 0 -15 -6 -15 -14 0 -8 7 -16 15
-20 11 -4 15 -22 15 -71 0 -58 2 -65 20 -65 18 0 20 7 20 70 0 56 3 70 15 70
8 0 15 7 15 15 0 8 -7 15 -15 15 -9 0 -15 9 -15 25 0 18 -5 25 -20 25 -15 0
-20 -7 -20 -25z"/>
<path d="M400 715 c0 -78 2 -85 20 -85 18 0 20 7 20 85 0 78 -2 85 -20 85 -18
0 -20 -7 -20 -85z"/>
<path d="M495 777 c-29 -25 -36 -77 -16 -115 23 -43 106 -49 139 -9 17 20 -11
31 -37 15 -22 -13 -67 -4 -75 17 -4 12 6 15 65 15 l71 0 -7 28 c-17 69 -88 94
-140 49z m89 -23 c9 -8 16 -17 16 -20 0 -2 -23 -4 -52 -4 -50 0 -51 0 -33 20
22 24 48 26 69 4z"/>
<path d="M660 715 c0 -78 2 -85 20 -85 18 0 20 7 20 60 0 49 3 61 20 70 14 8
26 8 40 0 17 -9 20 -21 20 -70 0 -54 2 -60 21 -60 20 0 21 4 17 71 -3 55 -8
74 -23 85 -23 17 -67 18 -83 2 -9 -9 -12 -9 -12 0 0 7 -9 12 -20 12 -18 0 -20
-7 -20 -85z"/>
<path d="M1078 789 c-19 -11 -25 -39 -8 -39 6 0 19 6 30 12 14 9 25 10 36 3
25 -16 18 -29 -22 -38 -47 -9 -64 -23 -64 -53 0 -33 39 -58 73 -45 13 5 34 7
46 4 20 -5 21 -2 21 65 0 51 -4 75 -16 86 -17 18 -70 21 -96 5z m76 -104 c-9
-23 -44 -39 -56 -27 -18 18 0 42 31 42 23 0 29 -4 25 -15z"/>
<path d="M1230 715 c0 -78 2 -85 20 -85 18 0 20 7 20 60 0 48 4 61 19 70 25
13 27 13 45 -6 11 -10 16 -34 16 -70 0 -48 2 -54 21 -54 21 0 21 4 17 72 -4
53 -10 75 -24 85 -22 16 -66 17 -82 1 -9 -9 -12 -9 -12 0 0 7 -9 12 -20 12
-18 0 -20 -7 -20 -85z"/>
<path d="M1420 732 c0 -81 18 -106 77 -106 53 0 73 30 73 110 0 57 -2 64 -20
64 -16 0 -19 -8 -22 -61 -3 -65 -19 -88 -52 -76 -12 5 -16 20 -16 72 0 58 -2
65 -20 65 -18 0 -20 -7 -20 -68z"/>
<path d="M1825 775 c-46 -45 -22 -133 40 -149 27 -7 95 17 95 33 0 16 -21 24
-33 12 -23 -23 -87 -7 -87 21 0 4 29 8 65 8 63 0 65 1 65 25 0 38 -42 75 -85
75 -25 0 -44 -8 -60 -25z m93 -17 c21 -21 13 -28 -33 -28 -25 0 -45 4 -45 8 0
15 24 32 45 32 12 0 26 -5 33 -12z"/>
</g>
</svg>
